{
  "accessors": [
    {
      "bufferView": 2,
      "componentType": 5126,
      "count": 16438,
      "max": [
        0.26497653126716614,
        1.3414759635925293,
        0.47113677859306335
      ],
      "min": [
        -0.4295954704284668,
        -0.0005450329044833779,
        -0.3303110599517822
      ],
      "type": "VEC3"
    },
    {
      "bufferView": 2,
      "byteOffset": 197256,
      "componentType": 5126,
      "count": 16438,
      "type": "VEC3"
    },
    {
      "bufferView": 3,
      "componentType": 5126,
      "count": 16438,
      "type": "VEC4"
    },
    {
      "bufferView": 1,
      "componentType": 5126,
      "count": 16438,
      "type": "VEC2"
    },
    {
      "bufferView": 1,
      "byteOffset": 131504,
      "componentType": 5126,
      "count": 16438,
      "type": "VEC2"
    },
    {
      "bufferView": 1,
      "byteOffset": 263008,
      "componentType": 5126,
      "count": 16438,
      "type": "VEC2"
    },
    {
      "bufferView": 1,
      "byteOffset": 394512,
      "componentType": 5126,
      "count": 16438,
      "type": "VEC2"
    },
    {
      "bufferView": 0,
      "componentType": 5125,
      "count": 89988,
      "type": "SCALAR"
    }
  ],
  "asset": {
    "generator": "fab-model-conversion",
    "version": "2.0"
  },
  "bufferViews": [
    {
      "buffer": 0,
      "byteLength": 359952,
      "target": 34963
    },
    {
      "buffer": 0,
      "byteLength": 526016,
      "byteOffset": 359952,
      "byteStride": 8,
      "target": 34962
    },
    {
      "buffer": 0,
      "byteLength": 394512,
      "byteOffset": 885968,
      "byteStride": 12,
      "target": 34962
    },
    {
      "buffer": 0,
      "byteLength": 263008,
      "byteOffset": 1280480,
      "byteStride": 16,
      "target": 34962
    }
  ],
  "buffers": [
    {
      "byteLength": 1543488,
      "uri": "scene.bin"
    }
  ],
  "images": [
    {
      "uri": "textures/Humano_Posed_0341842-Man_01_LOD1_4K_baseColor.jpeg"
    },
    {
      "uri": "textures/Humano_Posed_0341842-Man_01_LOD1_4K_metallicRoughness.png"
    },
    {
      "uri": "textures/Humano_Posed_0341842-Man_01_LOD1_4K_normal.jpeg"
    }
  ],
  "materials": [
    {
      "doubleSided": true,
      "name": "Humano_Posed_0341842-Man_01_LOD1_4K",
      "normalTexture": {
        "index": 2
      },
      "pbrMetallicRoughness": {
        "baseColorTexture": {
          "index": 0
        },
        "metallicFactor": 0.0,
        "metallicRoughnessTexture": {
          "index": 1
        }
      }
    }
  ],
  "meshes": [
    {
      "name": "Object_0",
      "primitives": [
        {
          "attributes": {
            "NORMAL": 1,
            "POSITION": 0,
            "TANGENT": 2,
            "TEXCOORD_0": 3,
            "TEXCOORD_1": 4,
            "TEXCOORD_2": 5,
            "TEXCOORD_3": 6
          },
          "indices": 7,
          "material": 0,
          "mode": 4
        }
      ]
    }
  ],
  "nodes": [
    {
      "children": [
        1
      ],
      "matrix": [
        1.0,
        0.0,
        0.0,
        0.0,
        0.0,
        2.220446049250313e-16,
        -1.0,
        0.0,
        0.0,
        1.0,
        2.220446049250313e-16,
        0.0,
        0.0,
        0.0,
        0.0,
        1.0
      ],
      "name": "Sketchfab_model"
    },
    {
      "children": [
        2
      ],
      "name": "root"
    },
    {
      "children": [
        3
      ],
      "matrix": [
        1.0,
        0.0,
        0.0,
        0.0,
        0.0,
        2.220446049250313e-16,
        1.0,
        0.0,
        0.0,
        -1.0,
        2.220446049250313e-16,
        0.0,
        0.0,
        0.0,
        0.0,
        1.0
      ],
      "name": "GLTF_SceneRootNode"
    },
    {
      "children": [
        4
      ],
      "name": "Humano_Posed_0341842-Man_01_LOD1_0"
    },
    {
      "mesh": 0,
      "name": "Object_4"
    }
  ],
  "samplers": [
    {
      "magFilter": 9729,
      "minFilter": 9987,
      "wrapS": 10497,
      "wrapT": 10497
    }
  ],
  "scene": 0,
  "scenes": [
    {
      "name": "Sketchfab_Scene",
      "nodes": [
        0
      ]
    }
  ],
  "textures": [
    {
      "sampler": 0,
      "source": 0
    },
    {
      "sampler": 0,
      "source": 1
    },
    {
      "sampler": 0,
      "source": 2
    }
  ]
}
